HIERARCHY
ROOT hips
{
  OFFSET 0 9.313263304106702 1.2146308026317778
  CHANNELS 6 Xposition Yposition Zposition Yrotation Xrotation Zrotation
  JOINT spine
  {
    OFFSET -6.402521e-31 0.5173342420023708 0
    CHANNELS 3 Yrotation Xrotation Zrotation
    JOINT chest
    {
      OFFSET 0 1.130544299341115 0
      CHANNELS 3 Yrotation Xrotation Zrotation
      JOINT upperChest
      {
        OFFSET 0 1.0863555061129995 0
        CHANNELS 3 Yrotation Xrotation Zrotation
        JOINT neck
        {
          OFFSET 0 1.3773706506454462 0
          CHANNELS 3 Yrotation Xrotation Zrotation
          JOINT head
          {
            OFFSET 0 0.7374408940073979 0
            CHANNELS 3 Yrotation Xrotation Zrotation
            JOINT leftEye
            {
              OFFSET 0.25066580148932727 0.6408406698778757 0.15963719178883284
              CHANNELS 3 Yrotation Xrotation Zrotation
              End Site
              {
                OFFSET 0.25066580148932727 0.6408406698778757 0.15963719178883284
              }
            }
            JOINT rightEye
            {
              OFFSET -0.25066576739704244 0.6408406384191823 0.15963727561643756
              CHANNELS 3 Yrotation Xrotation Zrotation
              End Site
              {
                OFFSET -0.25066576739704244 0.6408406384191823 0.15963727561643756
              }
            }
          }
        }
        JOINT leftShoulder
        {
          OFFSET 0.3761817444281191 1.0539491987447769 0
          CHANNELS 3 Yrotation Xrotation Zrotation
          JOINT leftUpperArm
          {
            OFFSET 0.8702844380000002 0 0
            CHANNELS 3 Yrotation Xrotation Zrotation
            JOINT leftLowerArm
            {
              OFFSET 2.198527310000323 0 0
              CHANNELS 3 Yrotation Xrotation Zrotation
              JOINT leftHand
              {
                OFFSET 2.146852313968281 0 0
                CHANNELS 3 Yrotation Xrotation Zrotation
                JOINT leftIndexProximal
                {
                  OFFSET 0.6585177834681599 0.07380250427007962 0.18382213159631788
                  CHANNELS 3 Yrotation Xrotation Zrotation
                  JOINT leftIndexIntermediate
                  {
                    OFFSET 0.3323021288626682 -0.009606893929485771 -0.012820872253340998
                    CHANNELS 3 Yrotation Xrotation Zrotation
                    JOINT leftIndexDistal
                    {
                      OFFSET 0.2045908926985518 -0.0071133989147997845 -0.006828784783599051
                      CHANNELS 3 Yrotation Xrotation Zrotation
                      End Site
                      {
                        OFFSET 0.2045908926985518 -0.0071133989147997845 -0.006828784783599051
                      }
                    }
                  }
                }
                JOINT leftLittleProximal
                {
                  OFFSET 0.6110054258835662 0.07380246363125398 -0.29175655876064077
                  CHANNELS 3 Yrotation Xrotation Zrotation
                  JOINT leftLittleIntermediate
                  {
                    OFFSET 0.3144281999999998 -2.5124724523095665e-9 1.8658118799974588e-7
                    CHANNELS 3 Yrotation Xrotation Zrotation
                    JOINT leftLittleDistal
                    {
                      OFFSET 0.18116185580251631 0.002815456192251098 0.0034826415518049436
                      CHANNELS 3 Yrotation Xrotation Zrotation
                      End Site
                      {
                        OFFSET 0.18116185580251631 0.002815456192251098 0.0034826415518049436
                      }
                    }
                  }
                }
                JOINT leftMiddleProximal
                {
                  OFFSET 0.6637478005691111 0.07380246480054087 0.02046981859247815
                  CHANNELS 3 Yrotation Xrotation Zrotation
                  JOINT leftMiddleIntermediate
                  {
                    OFFSET 0.3705733999999994 -2.9611069152224445e-9 9.35054791928458e-8
                    CHANNELS 3 Yrotation Xrotation Zrotation
                    JOINT leftMiddleDistal
                    {
                      OFFSET 0.22861063500000056 -1.82673876025774e-9 -1.6740782024515788e-7
                      CHANNELS 3 Yrotation Xrotation Zrotation
                      End Site
                      {
                        OFFSET 0.22861063500000056 -1.82673876025774e-9 -1.6740782024515788e-7
                      }
                    }
                  }
                }
                JOINT leftRingProximal
                {
                  OFFSET 0.6561845547265777 0.07380246406440083 -0.13588087571513918
                  CHANNELS 3 Yrotation Xrotation Zrotation
                  JOINT leftRingIntermediate
                  {
                    OFFSET 0.3437531000000005 -2.746796123886952e-9 1.4935781944558357e-7
                    CHANNELS 3 Yrotation Xrotation Zrotation
                    JOINT leftRingDistal
                    {
                      OFFSET 0.1983118991198174 -0.002467117924596085 -0.004538141969590015
                      CHANNELS 3 Yrotation Xrotation Zrotation
                      End Site
                      {
                        OFFSET 0.1983118991198174 -0.002467117924596085 -0.004538141969590015
                      }
                    }
                  }
                }
                JOINT leftThumbProximal
                {
                  OFFSET 0.09767004258864787 -0.14930060425447422 -0.07008212897521154
                  CHANNELS 3 Yrotation Xrotation Zrotation
                  JOINT leftThumbIntermediate
                  {
                    OFFSET 0.36682123028154767 -0.015768465060082004 0.28693641268151077
                    CHANNELS 3 Yrotation Xrotation Zrotation
                    JOINT leftThumbDistal
                    {
                      OFFSET 0.21091084272403915 -0.016756648201192714 0.1933767059105508
                      CHANNELS 3 Yrotation Xrotation Zrotation
                      End Site
                      {
                        OFFSET 0.21091084272403915 -0.016756648201192714 0.1933767059105508
                      }
                    }
                  }
                }
              }
            }
          }
        }
        JOINT rightShoulder
        {
          OFFSET -0.37618174442811925 1.0539491987447769 0
          CHANNELS 3 Yrotation Xrotation Zrotation
          JOINT rightUpperArm
          {
            OFFSET -0.870284438 0 0
            CHANNELS 3 Yrotation Xrotation Zrotation
            JOINT rightLowerArm
            {
              OFFSET -2.1985273100003235 0 0
              CHANNELS 3 Yrotation Xrotation Zrotation
              JOINT rightHand
              {
                OFFSET -2.1468523139682802 0 0
                CHANNELS 3 Yrotation Xrotation Zrotation
                JOINT rightIndexProximal
                {
                  OFFSET -0.6585177834681599 0.07380250427007962 0.18382213159631788
                  CHANNELS 3 Yrotation Xrotation Zrotation
                  JOINT rightIndexIntermediate
                  {
                    OFFSET -0.3323021288626682 -0.009606893929485771 -0.012820872253340998
                    CHANNELS 3 Yrotation Xrotation Zrotation
                    JOINT rightIndexDistal
                    {
                      OFFSET -0.2045908926985518 -0.0071133989147997845 -0.006828784783599051
                      CHANNELS 3 Yrotation Xrotation Zrotation
                      End Site
                      {
                        OFFSET -0.2045908926985518 -0.0071133989147997845 -0.006828784783599051
                      }
                    }
                  }
                }
                JOINT rightLittleProximal
                {
                  OFFSET -0.6110054258835662 0.07380246363125398 -0.29175655876064077
                  CHANNELS 3 Yrotation Xrotation Zrotation
                  JOINT rightLittleIntermediate
                  {
                    OFFSET -0.3144281999999998 -2.5124724523095665e-9 1.8658118799974588e-7
                    CHANNELS 3 Yrotation Xrotation Zrotation
                    JOINT rightLittleDistal
                    {
                      OFFSET -0.18116185580251631 0.002815456192251098 0.0034826415518049436
                      CHANNELS 3 Yrotation Xrotation Zrotation
                      End Site
                      {
                        OFFSET -0.18116185580251631 0.002815456192251098 0.0034826415518049436
                      }
                    }
                  }
                }
                JOINT rightMiddleProximal
                {
                  OFFSET -0.6637478005691111 0.07380246480054087 0.02046981859247815
                  CHANNELS 3 Yrotation Xrotation Zrotation
                  JOINT rightMiddleIntermediate
                  {
                    OFFSET -0.3705733999999994 -2.9611069152224445e-9 9.35054791928458e-8
                    CHANNELS 3 Yrotation Xrotation Zrotation
                    JOINT rightMiddleDistal
                    {
                      OFFSET -0.22861063500000056 -1.82673876025774e-9 -1.6740782024515788e-7
                      CHANNELS 3 Yrotation Xrotation Zrotation
                      End Site
                      {
                        OFFSET -0.22861063500000056 -1.82673876025774e-9 -1.6740782024515788e-7
                      }
                    }
                  }
                }
                JOINT rightRingProximal
                {
                  OFFSET -0.6561845547265777 0.07380246406440083 -0.13588087571513918
                  CHANNELS 3 Yrotation Xrotation Zrotation
                  JOINT rightRingIntermediate
                  {
                    OFFSET -0.3437531000000005 -2.746796123886952e-9 1.4935781944558357e-7
                    CHANNELS 3 Yrotation Xrotation Zrotation
                    JOINT rightRingDistal
                    {
                      OFFSET -0.1983118991198174 -0.002467117924596085 -0.004538141969590015
                      CHANNELS 3 Yrotation Xrotation Zrotation
                      End Site
                      {
                        OFFSET -0.1983118991198174 -0.002467117924596085 -0.004538141969590015
                      }
                    }
                  }
                }
                JOINT rightThumbProximal
                {
                  OFFSET -0.09767004258864787 -0.14930060425447422 -0.07008212897521154
                  CHANNELS 3 Yrotation Xrotation Zrotation
                  JOINT rightThumbIntermediate
                  {
                    OFFSET -0.36682123028154767 -0.015768465060082004 0.28693641268151077
                    CHANNELS 3 Yrotation Xrotation Zrotation
                    JOINT rightThumbDistal
                    {
                      OFFSET -0.21091084272403915 -0.016756648201192714 0.1933767059105508
                      CHANNELS 3 Yrotation Xrotation Zrotation
                      End Site
                      {
                        OFFSET -0.21091084272403915 -0.016756648201192714 0.1933767059105508
                      }
                    }
                  }
                }
              }
            }
          }
        }
      }
    }
  }
  JOINT leftUpperLeg
  {
    OFFSET 0.7715603 -0.3993844658041501 0
    CHANNELS 3 Yrotation Xrotation Zrotation
    JOINT leftLowerLeg
    {
      OFFSET 0 -3.529830000249343 0
      CHANNELS 3 Yrotation Xrotation Zrotation
      JOINT leftFoot
      {
        OFFSET 0 -4.154939295409685 0.004208579085223096
        CHANNELS 3 Yrotation Xrotation Zrotation
        JOINT leftToes
        {
          OFFSET 0 -0.6353414391261847 1.10414981190622
          CHANNELS 3 Yrotation Xrotation Zrotation
          End Site
          {
            OFFSET 0 -0.6015820691747853 1.10414981190622
          }
        }
      }
    }
  }
  JOINT rightUpperLeg
  {
    OFFSET -0.7715603 -0.3993844658041501 0
    CHANNELS 3 Yrotation Xrotation Zrotation
    JOINT rightLowerLeg
    {
      OFFSET 0 -3.529830000249343 0
      CHANNELS 3 Yrotation Xrotation Zrotation
      JOINT rightFoot
      {
        OFFSET 0 -4.154939295409685 0.004208579085223096
        CHANNELS 3 Yrotation Xrotation Zrotation
        JOINT rightToes
        {
          OFFSET 0 -0.6353414391261847 1.10414981190622
          CHANNELS 3 Yrotation Xrotation Zrotation
          End Site
          {
            OFFSET 0 -0.6015820691747853 1.10414981190622
          }
        }
      }
    }
  }
}
MOTION
Frames: 4
Frame Time: 0.03333333333333333
0.09079729968851263 8.993953358043322 1.781450329564234 -2.263601619089918 -1.6337792750028906 -0.9958671762205623 0.45532387558894405 -0.12017797359839165 0.5078120042813358 0.8867040049192527 -0.24491107900329584 1.0146532905380656 0 0 0 1.6838371504466287 2.505262314351637 -0.7729291698198892 3.1748816817643424 6.338124702077924 0.0016014696009850015 0 0 0 0 0 0 2.268744753856146 0.00757822330577701 -2.0616250029550582 2.532363694016919 -0.5591054269802885 -67.85901010920641 0.10862739615523119 14.00440611579487 -0.28175366004735697 6.756686014927924 -2.272327227499972 18.502435461501495 4.817322796621156 -1.3949853879050227 -26.951178575082626 0.000009767857358227156 -0.0000012605437917948212 -16.609100447740243 0.000004000143217109985 0.0000019997137579866756 0.004099999884535492 16.451705343310724 -17.23738967481153 -25.155700561437083 0.000016723396819123617 0.000006732605884830973 -18.74919628848199 0.000002637215996119236 0.0000024586766531860946 -9.303343226330433 0.33966187434570566 0.2218403627407697 -33.15044792017824 0.00000842086629374569 0.000004369097330823746 -8.987221968760862 0.000009209843339138245 -4.228340840173638e-7 -9.900141502137906 7.540444252401301 -10.107212887009753 -33.90939782202532 0.000009886227323918493 0.0000018062426013793708 -16.06450124101046 0.000009932549227632575 0.0000011595131924493203 -6.658498858365727 28.95932434890993 -0.5809131658820907 -35.257813377739154 5.826856059368936 -9.60860096700663 8.166596606558981 15.91966791344713 0.00000316576922419358 0.000014421439784200754 0.18079158901311318 0.09783451661496236 3.3642795860666466 -9.256994747633074 -13.13955932698312 68.42606102619469 -0.0904463320495917 25.89927886319788 -0.4080354715225627 -9.86993549002038 -3.6841210921635854 -20.257874112511807 -6.4437080072508905 1.0774646945979158 26.10875130568996 -0.000017080343601026127 -5.116903342642205e-7 18.84010053386502 -0.000003783399356676352 0.000003268927894509792 3.9577301497053647 -16.582911723434684 -13.599851471839482 16.1558331305167 -0.000010013377045419169 0.000011168360720891258 11.251198788022446 -0.0000033972820539016785 0.00000452310457205445 8.089963904890904 -3.169713927862744 1.7334377370492267 28.644936519171345 -0.00000755833731834473 0.000003983910480237804 7.237141633774622 -0.00000308552174313638 -6.92499779017931e-7 5.7853690240544475 -5.042238293263495 -5.512444764197368 27.263929203323716 -0.000008920752190142928 0.0000011917087516012153 7.609000355916932 -0.000003999999914038257 -4.690048915056116e-10 -0.0067180000304323025 -29.997710963470595 2.9390621934665773 33.39582137399433 -6.828771113021206 -8.03408389306547 -6.801845240114282 -17.162081426845653 -0.0000042013073467142 -0.000010215137185526236 3.420540743133127 7.400740262474924 -0.7406641860123636 0.031348165574289 -0.37653735224254375 -0.052774885913774626 2.8217119819233565 -5.109569246066176 2.2277240515805907 -0.18097585889035628 1.0695685704692706 -0.010038053083162518 0.026421191196818218 7.4558855717968076 1.6259579517108484 -0.053287315851827985 -1.5535475129923466 0.2689544022468203 -0.37532800357187274 -3.299458914774293 -2.375194053983351 0.025473369801915245 0.137546041392317 0.008933127213513675
0.09259127080440521 8.993994972922584 1.7819169797467846 -2.2634320787716535 -1.6220644008459022 -0.9993530499788414 0.45473646941253393 -0.12052982249838952 0.5123454707681673 0.8820587194228883 -0.2454272966201076 1.0237449794883227 0 0 0 1.6779229653116432 2.4988234183902516 -0.766339247790779 3.1639147632550597 6.346204317914416 0.005431018701753412 0 0 0 0 0 0 2.266408502930976 0.008082263256784765 -2.0406087366370422 2.5607640561222063 -0.5416457507404561 -67.89590187360922 0.10843992634903879 13.986908541039915 -0.2820913330842993 6.760544803740767 -2.2682944638394162 18.467137588738897 4.8218365443294005 -1.403060758563316 -26.955592101878757 0.000009766347790642022 -0.0000012721868610394734 -16.540797783641814 0.00000400088863734957 0.000001998221899730007 0.02546800085778644 16.462057727575562 -17.251095827557624 -25.187255400054585 0.000016720799450948552 0.000006739058187057727 -18.77130371666951 0.000003461385955395513 0.0000036081584270589553 -9.319461052733844 0.3242384560884491 0.21241273967090857 -33.23060289891293 0.000006292436251133345 0.000005040361487677733 -8.950511233129948 0.000010367494405877066 -0.0000012308799541693709 -9.928500629535327 7.537234553471099 -10.115403998961469 -33.981612163097644 0.000009608904125466843 0.0000027692899287110712 -16.07700206157123 0.000011041476435761868 2.929418338259532e-7 -6.714189061390957 28.944768158131325 -0.5950805247056299 -35.24712957659029 5.822618001351255 -9.618555748962624 8.175261233902665 15.906075992554298 0.000004265435064201489 0.00001057383861583543 0.19226741228283745 0.09761131451277666 3.3622604962166887 -9.283887835008775 -13.149835659573599 68.45752428553813 -0.09029063868909382 25.897678694932647 -0.40733240168006535 -9.87368772198318 -3.677719096986452 -20.22603673775386 -6.442911335005319 1.0569958692628012 26.074849524322016 -0.000016134088991746133 -8.313532293021463e-7 18.851695158879455 -0.0000027847872195631553 0.000003200774867017642 3.975579932849993 -16.590328814092626 -13.606415865770565 16.123709110463203 -0.000010013648995566652 0.000011168116454291723 11.249799836489561 -0.000004666320522028621 0.000002688020191934816 8.142555908058014 -3.1468140456389 1.7251273749880263 28.704306413798992 -0.000007546441534947307 0.000004006396442058127 7.407731007805279 -0.000003087147133800795 -6.852170721305031e-7 5.920567942924012 -5.030677319168271 -5.511528698168254 27.27282969461979 -0.000007928379232648408 0.000001068088275352839 7.672529189974437 -0.000003999997878483261 4.253785547972493e-9 0.060931000054270094 -29.987612338212667 2.9136593969105626 33.40018790426523 -6.828036675961879 -8.055557597054541 -6.820353933164438 -17.183484738791527 -0.0000010435997345273165 -0.0000101445009844943 3.428916639037917 7.376478616603496 -0.7508372755377991 0.030778903934221332 -0.352279444594896 -0.051634275121723784 2.809202354195578 -5.1148310665158006 2.2454445611179334 -0.18122256107937684 1.0619398504429531 -0.010287505034730485 0.010906284741497933 7.443656195383704 1.6150848004058045 -0.05243261524005445 -1.547215103567779 0.26560746543856073 -0.3620845129169609 -3.3005950369931365 -2.3551946227007594 0.02442028876383301 0.13768439314271302 0.008472660071952966
0.09664584289897571 8.994160565462979 1.7819273834666 -2.266808167289722 -1.5831307532381123 -1.0103141992153004 0.45313150192413726 -0.12900618740482142 0.5228318136728054 0.8798437268668569 -0.2621472034989242 1.044667154918372 0 0 0 1.6615194504151523 2.4945528441555513 -0.7579639318946537 3.134847976807902 6.378408502280262 0.0443671185344181 0 0 0 0 0 0 2.264923509152156 0.009097566886266815 -2.0100197803018234 2.5918847949577004 -0.50080289037072 -67.96093709176218 0.1080650935456127 13.896409761198456 -0.2827500387738065 6.766415023198938 -2.257833767786946 18.374047556315812 4.836316461034133 -1.4322751631722221 -26.91742223371231 0.000008804329029249893 -0.0000015760043344320978 -16.416399446345178 0.000003002134418497644 0.000001996794975677715 0.06119100430142654 16.484821737500557 -17.27000290681021 -25.200994303490816 0.00001768558738135736 0.00000390127997494663 -18.779900787172966 0.0000011489040833649556 -8.246329971490259e-7 -9.330872590749008 0.2948931922493864 0.1941692962092412 -33.36350099706491 0.000006293505324617316 0.000005039026977822266 -8.93835899419971 0.00000938444429026486 -0.000001390033587319058 -10.009501073283584 7.5295138864480995 -10.131802461182218 -34.10080316796847 0.000009884555726155666 0.0000018153694193155487 -16.117400333976097 0.000010921952717498721 0.0000013080308471886937 -6.829309145865352 28.91088894429403 -0.6240704490233067 -35.22887911498489 5.799279606060138 -9.627844025746986 8.183360595215365 15.861569934228358 0.000004000333337946634 0.000011532447415498018 0.2124751648456841 0.09715333766123634 3.355918181873184 -9.305146735485444 -13.15024598534869 68.52458428640746 -0.08998556370176927 25.898978948632237 -0.4058403793754863 -9.874036722100563 -3.6628679797252395 -20.161501569418856 -6.4147578870793005 1.0069119990436626 25.98793342158323 -0.000017080765368021326 -4.97440329736016e-7 18.887900350133787 -0.000004705614061452044 0.000004342487334581249 4.041979799629005 -16.649853073415212 -13.61496750706981 16.03635317599805 -0.00000960976557234121 0.00000804067184534336 11.309399014028202 -0.0000032356899276443703 0.000005525424065482118 8.3065549774514 -3.0951809856672634 1.7052826536594172 28.825421043183727 -0.0000075159912606491014 0.000004063234837104251 7.840140580373826 -0.0000030911598233646792 -6.668817596139274e-7 6.260638955378479 -5.012615367444264 -5.510030658779053 27.271463747352044 -0.000007924175404470387 0.0000010988327891257378 7.89476838997777 -0.000003999964902492323 1.6773892348468945e-8 0.24026899696731577 -29.960896799251746 2.8652302678898516 33.41357613700421 -6.833631316092485 -8.113506248117176 -6.870309442669704 -17.222881691812017 -0.000003849164067491543 -0.000012417082518157002 3.43015346761066 7.30666093485583 -0.7732240415437465 0.029610690152428613 -0.305513648213937 -0.049341197825658586 2.8065622853146635 -5.12188103939455 2.283202340370918 -0.18165860844435627 1.0367309439285501 -0.01079463764715511 -0.021635160099948352 7.395521240167281 1.5971831668990586 -0.04989398228077706 -1.5330566627922235 0.2536455620704552 -0.3265942417801331 -3.293466607772424 -2.3120460056783636 0.02212382163746465 0.1361571077904711 0.007525555097778223
0.10113592174920168 8.994367772882633 1.7817925144112854 -2.2842193025186988 -1.5417531300415361 -1.0255927911555445 0.4509051642938502 -0.14023937165473857 0.5328033682623041 0.8847730076588025 -0.2838318062708035 1.0645115557210132 0 0 0 1.6441361686737497 2.5145590096490857 -0.7369893759103604 3.108656333175868 6.417190223996992 0.10294436685988415 0 0 0 0 0 0 2.2790059857557847 0.010125964771851226 -2.0015998633073933 2.58385784872001 -0.4603978575929989 -67.98953073577442 0.10769369672131782 13.823004679221095 -0.28337569505171645 6.758141594567108 -2.2276167031136995 18.159344708154006 4.8206215614111825 -1.4687565422270354 -26.84864014153238 0.000012922092313590502 -0.0000014211030774470901 -16.343999137755638 0.0000030024814806244854 0.0000019962728558212062 0.07115400115184381 16.504166746047545 -17.279004745517877 -25.222865582318917 0.000017034160929273786 0.00000581698800668675 -18.85450038637146 0.0000031230838394800895 -4.963347180398644e-7 -9.404761879299205 0.27088716334482926 0.1791569809699647 -33.48067271030221 0.000007427963277730174 0.000004222008941024909 -9.057589343988226 0.000008403475326080697 -0.000001543242789213527 -10.149999590040402 7.525517555574777 -10.141771345963953 -34.189473080586666 0.000010841023936184322 0.0000021147584410363284 -16.232501596861805 0.000010918914041000489 0.0000013331574327277552 -6.961139607668509 28.87023381193544 -0.664956894881612 -35.22152683663836 5.741274055942973 -9.624107381745338 8.180107567116298 15.783276604512796 0.0000016731947574996368 0.000008786377062627968 0.2288856730338352 0.09667368293855216 3.3441678882096633 -9.266877731914455 -13.109108978062958 68.60732201677223 -0.08968624068786267 25.85607623718971 -0.4042462511637824 -9.869947942662314 -3.642884080863737 -20.060826439055138 -6.384528984568262 0.9547988756883694 25.88050606302025 -0.000018351989004436508 -0.0000010974897299392869 18.95779386350002 -0.0000027762049125884438 0.0000032082217414155082 4.129028936809603 -16.790324719212354 -13.618666725751014 15.93491641347832 -0.000010170651352418668 0.000010225353228941008 11.46359877005644 -0.0000046473878250095545 0.0000027206220478639396 8.54367386202489 -3.0488847801520125 1.6835244301123449 28.880194407036818 -0.000007482269442361103 0.000004125001717907022 8.312058176586673 -0.000004088835605179652 -5.30491534430537e-7 6.643898889335153 -5.007387850256878 -5.500070272467469 27.1753651467023 -0.000007917874140424347 0.0000011433597404442285 8.216848026051721 -0.000003999876152294492 3.1447575385236446e-8 0.4504580308557082 -29.917268240553838 2.832084449199354 33.41978343603523 -6.847861531608428 -8.161997092538183 -6.912130896624978 -17.26367962044164 -0.000006658211642165168 -0.000014685646680479288 3.4248321134265804 7.252425798875701 -0.799121669567752 0.02839847046512346 -0.28580890365969575 -0.0468720835791576 2.833290706536397 -5.131210404463046 2.31979017095406 -0.18198340341455588 1.039630301572073 -0.011317634719085133 -0.06308382947240203 7.295541732382411 1.579814466900733 -0.0469223856777252 -1.4356426472435206 0.23424946654512221 -0.2711924012955489 -3.3303719949827553 -2.2608803204647105 0.019566017388784922 0.13193477200680082 0.006544037859443027
